<svg width="30" height="30" viewBox="0 0 30 30" fill="none" xmlns="http://www.w3.org/2000/svg">
<path d="M26.25 15.9875C26.0534 18.1153 25.2548 20.143 23.9478 21.8335C22.6408 23.524 20.8794 24.8072 18.8696 25.5332C16.8599 26.2591 14.685 26.3977 12.5994 25.9326C10.5138 25.4676 8.60374 24.4182 7.09278 22.9072C5.58182 21.3963 4.53242 19.4862 4.06738 17.4006C3.60234 15.315 3.74089 13.1401 4.46682 11.1304C5.19275 9.12064 6.47604 7.35921 8.16651 6.05219C9.85699 4.74517 11.8847 3.94663 14.0125 3.75C12.7668 5.43533 12.1673 7.51181 12.3232 9.60177C12.479 11.6917 13.3798 13.6563 14.8618 15.1382C16.3437 16.6202 18.3083 17.521 20.3982 17.6768C22.4882 17.8327 24.5647 17.2332 26.25 15.9875Z" stroke="white" stroke-width="2" stroke-linecap="round" stroke-linejoin="round"/>
</svg>
